<svg width="20" height="20" viewBox="0 0 20 20" fill="none" xmlns="http://www.w3.org/2000/svg">
<path fill-rule="evenodd" clip-rule="evenodd" d="M10 20C15.5228 20 20 15.5228 20 10C20 4.47715 15.5228 0 10 0C4.47715 0 0 4.47715 0 10C0 15.5228 4.47715 20 10 20ZM6.88621 13.8276C9.11127 13.8276 10.9151 12.0114 10.9151 9.771C10.9151 7.5306 9.11141 5.71428 6.88621 5.71428C4.66101 5.71428 2.85714 7.5306 2.85714 9.771C2.85714 12.0114 4.66115 13.8276 6.88621 13.8276ZM13.3205 13.5901C14.4331 13.5901 15.335 11.8798 15.335 9.77098H15.3349C15.3349 7.66159 14.433 5.95189 13.3204 5.95189C12.2078 5.95189 11.306 7.66213 11.306 9.77098C11.306 11.8798 12.2079 13.5901 13.3205 13.5901ZM17.1429 9.77097C17.1429 11.66 16.8257 13.1923 16.4343 13.1923C16.043 13.1923 15.726 11.6604 15.726 9.77097C15.726 7.88154 16.0431 6.34967 16.4343 6.34967C16.8256 6.34967 17.1429 7.88141 17.1429 9.77097Z" fill="#76789E"/>
</svg>
