<svg width="36" height="36" viewBox="0 0 36 36" fill="none" xmlns="http://www.w3.org/2000/svg">
<circle opacity="0.1" cx="18" cy="18" r="18" fill="#2A3196"/>
<path d="M18 28C12.477 28 8 23.523 8 18C8 12.477 12.477 8 18 8C23.523 8 28 12.477 28 18C28 23.523 23.523 28 18 28ZM18 26C20.1217 26 22.1566 25.1571 23.6569 23.6569C25.1571 22.1566 26 20.1217 26 18C26 15.8783 25.1571 13.8434 23.6569 12.3431C22.1566 10.8429 20.1217 10 18 10C15.8783 10 13.8434 10.8429 12.3431 12.3431C10.8429 13.8434 10 15.8783 10 18C10 20.1217 10.8429 22.1566 12.3431 23.6569C13.8434 25.1571 15.8783 26 18 26ZM13 18H15C15 18.7956 15.3161 19.5587 15.8787 20.1213C16.4413 20.6839 17.2044 21 18 21C18.7956 21 19.5587 20.6839 20.1213 20.1213C20.6839 19.5587 21 18.7956 21 18H23C23 19.3261 22.4732 20.5979 21.5355 21.5355C20.5979 22.4732 19.3261 23 18 23C16.6739 23 15.4021 22.4732 14.4645 21.5355C13.5268 20.5979 13 19.3261 13 18Z" fill="#1A1E5D"/>
</svg>
