<svg width="18" height="18" viewBox="0 0 18 18" fill="none" xmlns="http://www.w3.org/2000/svg">
<path d="M9.00016 9.93738C11.4943 9.93738 13.3752 7.67666 13.3752 4.67863C13.3752 2.27791 11.3717 0.25 9.00016 0.25C6.62853 0.25 4.625 2.27791 4.625 4.67863C4.625 7.67669 6.50588 9.93738 9.00016 9.93738ZM9.00016 1.77984C10.5132 1.77984 11.8408 3.13234 11.8408 4.67438C11.8408 6.80266 10.6194 8.40759 9.00016 8.40759C7.3805 8.40759 6.1595 6.80269 6.1595 4.67438C6.1595 3.13234 7.487 1.77984 9.00016 1.77984ZM17.2045 14.5073C17.0663 13.3266 16.3622 12.4926 15.2751 12.2266C14.908 12.136 13.6952 11.8886 13.0345 11.7548L12.3985 9.9375C11.9901 10.2877 11.5372 10.5729 11.0456 10.7832L11.8589 13.1064L12.2938 13.1933C15.1321 13.7616 15.5422 13.6918 15.6587 14.6879C15.7149 15.171 15.808 16.5048 15.8791 17.75H17.4379C17.3653 16.5048 17.2664 15.04 17.2045 14.5073ZM4.96603 11.7548C4.30562 11.8886 3.09309 12.136 2.72719 12.2263C1.63828 12.4926 0.93425 13.3266 0.795969 14.508C0.734 15.04 0.635125 16.5048 0.5625 17.75H2.12138C2.32047 14.637 2.24519 13.9507 3.09859 13.7425C3.47366 13.6495 4.96847 13.3433 5.70669 13.1956L6.14156 13.1075L6.95491 10.7838C6.46356 10.5734 6.01034 10.288 5.60234 9.93778L4.96603 11.7548Z" fill="#46B3ED"/>
</svg>
