<svg width="122" height="24" viewBox="0 0 122 24" fill="none" xmlns="http://www.w3.org/2000/svg">
<path fill-rule="evenodd" clip-rule="evenodd" d="M15.8617 23.7126L20.4679 0H24.5948L19.9886 23.7126H15.8617Z" fill="#293096"/>
<path fill-rule="evenodd" clip-rule="evenodd" d="M32.2399 16.9469H28.4648C28.4221 17.3297 28.4011 17.5853 28.4011 17.7125C28.4011 18.7343 28.6621 19.4681 29.1847 19.9151C29.7074 20.3621 30.5764 20.5853 31.7919 20.5853C34.5217 20.5853 36.3987 20.5427 37.4223 20.4575L36.2068 23.6171C35.0551 23.7233 33.3808 23.7767 31.1844 23.7767C26.6841 23.7767 24.4342 21.8093 24.4342 17.8721C24.4342 16.9151 24.5406 15.9365 24.7541 14.9363C25.0951 13.2767 25.5642 11.8781 26.162 10.7393C26.7586 9.60171 27.4737 8.74491 28.3055 8.17011C29.1366 7.59591 29.9792 7.19211 30.8326 6.95751C31.6854 6.72351 32.6561 6.60651 33.7435 6.60651C35.8334 6.60651 37.3904 6.99471 38.414 7.77111C39.4376 8.54811 39.9494 9.63831 39.9494 11.0429C39.9494 11.5325 39.8857 12.0641 39.7576 12.6383C39.416 14.1701 38.6642 15.2717 37.5023 15.9413C36.3398 16.6121 34.5854 16.9469 32.2399 16.9469ZM33.4554 9.73431C32.1762 9.73431 31.2109 10.0373 30.5602 10.6439C29.9094 11.2499 29.3928 12.3407 29.0091 13.9151H32.2399C33.5197 13.9151 34.399 13.7981 34.8789 13.5641C35.3589 13.3301 35.7053 12.8831 35.9188 12.2237C36.0252 11.9045 36.0787 11.6063 36.0787 11.3297C36.0787 10.2659 35.2043 9.73431 33.4554 9.73431ZM47.9787 13.0213C50.1324 13.0213 51.6786 13.4791 52.6174 14.3935L52.7131 13.9471C52.8412 13.3087 52.9049 12.8191 52.9049 12.4789C52.9049 11.7559 52.6439 11.2291 52.1213 10.8991C51.5986 10.5691 50.7404 10.4041 49.546 10.4041C46.7098 10.4041 44.7365 10.4257 43.6281 10.4683L44.9079 7.11729C45.5262 7.07469 47.1897 7.05309 49.8984 7.05309C52.2223 7.05309 53.9291 7.46829 55.0165 8.29809C56.1044 9.12729 56.6481 10.3723 56.6481 12.0319C56.6481 12.3937 56.5627 13.0855 56.3925 14.1067L55.1446 20.7769C54.9527 21.8191 54.5949 22.5535 54.0729 22.9789C53.5496 23.4049 52.7455 23.6707 51.6576 23.7769C50.3561 23.9251 48.9488 24.0001 47.4351 24.0001C45.2381 24.0001 43.6119 23.6491 42.5564 22.9471C41.5009 22.2445 40.9729 21.1387 40.9729 19.6279C40.9729 18.9049 41.0474 18.2347 41.1966 17.6173C41.8792 14.5531 44.1399 13.0213 47.9787 13.0213ZM48.4587 15.9259C47.3497 15.9259 46.5281 16.0963 45.9953 16.4365C45.4618 16.7767 45.11 17.3935 44.9398 18.2875C44.8754 18.6493 44.8436 18.9469 44.8436 19.1809C44.8436 19.9045 45.0883 20.3887 45.5797 20.6329C46.0698 20.8777 46.9118 21.0001 48.1068 21.0001C49.3866 21.0001 50.4421 20.9473 51.2739 20.8405L51.5938 19.3087C51.7003 18.8617 51.7532 18.4261 51.7532 18.0001C51.7532 17.2555 51.4922 16.7233 50.9696 16.4041C50.4469 16.0849 49.6104 15.9259 48.4587 15.9259ZM67.3649 6.60645C69.4121 6.60645 70.8519 7.10625 71.6836 8.10645L73.2509 -0.000152588H77.3778L73.3471 20.7766C73.1336 21.883 72.771 22.6438 72.2592 23.0584C71.7474 23.4736 70.8838 23.7449 69.6683 23.872C68.7295 23.9573 67.6632 23.9998 66.4694 23.9998C63.8027 23.9998 61.8469 23.4682 60.599 22.4044C59.351 21.3406 58.7274 19.6912 58.7274 17.4574C58.7274 16.5856 58.8236 15.6172 59.0155 14.5534C59.2921 13 59.692 11.692 60.2153 10.6276C60.7373 9.56385 61.3772 8.74485 62.1344 8.17005C62.891 7.59585 63.686 7.19205 64.5178 6.95745C65.3495 6.72345 66.298 6.60645 67.3649 6.60645ZM66.5331 20.6806C67.514 20.6806 68.4312 20.6171 69.2846 20.4893L70.4682 14.2978C70.5957 13.6594 70.66 13.1278 70.66 12.7018C70.66 11.6806 70.3882 10.963 69.8439 10.5478C69.3002 10.1332 68.5058 9.92565 67.4611 9.92565C66.2234 9.92565 65.296 10.2448 64.6778 10.8832C64.0589 11.5216 63.5579 12.745 63.1742 14.5534C62.9391 15.6172 62.8224 16.564 62.8224 17.3938C62.8224 18.6496 63.1309 19.5112 63.7498 19.9786C64.368 20.4472 65.296 20.6806 66.5331 20.6806ZM85.0869 16.9469H81.3118C81.2691 17.3297 81.2481 17.5853 81.2481 17.7125C81.2481 18.7343 81.5091 19.4681 82.0317 19.9151C82.5544 20.3621 83.4234 20.5853 84.6389 20.5853C87.3687 20.5853 89.2457 20.5427 90.2693 20.4575L89.0538 23.6171C87.9021 23.7233 86.2278 23.7767 84.0314 23.7767C79.5311 23.7767 77.2812 21.8093 77.2812 17.8721C77.2812 16.9151 77.3876 15.9365 77.6011 14.9363C77.9421 13.2767 78.4112 11.8781 79.0084 10.7393C79.6056 9.60171 80.3201 8.74491 81.1519 8.17011C81.9836 7.59591 82.8262 7.19211 83.679 6.95751C84.5318 6.72351 85.5025 6.60651 86.5905 6.60651C88.6804 6.60651 90.2374 6.99471 91.261 7.77111C92.2846 8.54811 92.7964 9.63831 92.7964 11.0429C92.7964 11.5325 92.7327 12.0641 92.6046 12.6383C92.263 14.1701 91.5112 15.2717 90.3493 15.9413C89.1868 16.6121 87.4324 16.9469 85.0869 16.9469ZM86.3024 9.73431C85.0226 9.73431 84.0579 10.0373 83.4072 10.6439C82.7564 11.2499 82.2398 12.3407 81.8555 13.9151H85.0869C86.3667 13.9151 87.246 13.7981 87.7259 13.5641C88.2058 13.3301 88.5523 12.8831 88.7658 12.2237C88.8722 11.9045 88.9257 11.6063 88.9257 11.3297C88.9257 10.2659 88.0513 9.73431 86.3024 9.73431ZM99.29 12.0639C99.29 12.3621 99.391 12.5961 99.5937 12.7659C99.7963 12.9363 100.132 13.0851 100.602 13.2129L103.321 13.9791C104.792 14.4255 105.848 14.9577 106.488 15.5745C107.128 16.1919 107.448 17.0319 107.448 18.0957C107.448 18.4365 107.394 18.9471 107.288 19.6275C107.031 21.0321 106.29 22.0749 105.064 22.7553C103.837 23.4369 102.041 23.7765 99.6737 23.7765C96.432 23.7765 94.2994 23.7555 93.2758 23.7129L94.4913 20.3295C95.664 20.3727 97.4875 20.3937 99.9617 20.3937C101.242 20.3937 102.089 20.3295 102.505 20.2023C102.921 20.0745 103.193 19.7451 103.321 19.2129C103.363 19.0005 103.384 18.8301 103.384 18.7023C103.384 18.0429 102.883 17.5851 101.881 17.3301L98.81 16.5003C96.5277 15.8409 95.3868 14.5215 95.3868 12.5427C95.3868 12.0957 95.4295 11.6601 95.5149 11.2341C95.7921 9.80907 96.5012 8.75547 97.6427 8.07447C98.783 7.39407 100.442 7.05327 102.617 7.05327C104.365 7.05327 106.488 7.09587 108.983 7.18107L107.735 10.5321C105.752 10.4679 103.896 10.4361 102.169 10.4361C101.23 10.4361 100.58 10.4949 100.217 10.6119C99.8547 10.7289 99.5883 11.0001 99.4181 11.4255C99.3327 11.6169 99.29 11.8299 99.29 12.0639ZM114.357 18.7979C114.357 19.3085 114.517 19.6865 114.837 19.9307C115.157 20.1755 115.69 20.2979 116.436 20.2979H119.955L118.644 23.7131H115.445C111.968 23.7131 110.23 22.2239 110.23 19.2449C110.23 18.7769 110.305 18.1169 110.455 17.2661L113.206 3.06411L117.396 2.58531L116.533 7.11711H121.843L120.563 10.5323H115.861L114.485 17.5535C114.399 17.9789 114.357 18.3941 114.357 18.7979Z" fill="#293096"/>
<path fill-rule="evenodd" clip-rule="evenodd" d="M9.00616 16.5306L9.56728 13.6422H15.3036L14.7424 16.5306H9.00616Z" fill="#A6DEDE"/>
<path fill-rule="evenodd" clip-rule="evenodd" d="M4.8943 12.0558L5.45542 9.16681H16.2382L15.677 12.0558H4.8943Z" fill="#5CD4D4"/>
<path fill-rule="evenodd" clip-rule="evenodd" d="M0 7.58043L1.46685 0.0300293H17.9203L16.4535 7.58043H0Z" fill="#57ABD6"/>
</svg>
