<svg width="18" height="18" viewBox="0 0 18 18" fill="none" xmlns="http://www.w3.org/2000/svg">
<path d="M3.0625 3.0625V14.9375H12.125V3.0625H10.5625V13.375H4.625V3.0625H3.0625ZM7.38459 9.58787C6.84475 9.58787 6.3525 9.41316 5.99512 9.23844L5.73328 10.3421C6.04272 10.5008 6.58259 10.6517 7.13863 10.6755V11.4139H8.04347V10.6041C8.99622 10.4373 9.52022 9.82591 9.52022 9.08769C9.52022 8.36519 9.15522 7.91259 8.15488 7.58712C7.48775 7.34894 7.218 7.19803 7.218 6.9995C7.218 6.82494 7.36081 6.65816 7.82928 6.65816C8.43262 6.65816 8.81378 6.84081 9.028 6.92809L9.28222 5.87219C9.00422 5.75303 8.63128 5.64194 8.08319 5.61812V4.95116H7.17834V5.68159C6.27319 5.86425 5.773 6.43584 5.773 7.15834C5.773 7.96019 6.38428 8.36516 7.24181 8.64303C7.83722 8.82569 8.06731 8.97644 8.06731 9.22256C8.06728 9.47663 7.78956 9.58787 7.38459 9.58787ZM15.7188 0.25H2.28125C1.16125 0.25 0.25 1.16125 0.25 2.28125V5.71875C0.25 6.67719 0.918094 7.48075 1.8125 7.69322V5.71875V4.93747V2.28125C1.8125 2.02278 2.02278 1.8125 2.28125 1.8125H15.7188C15.9772 1.8125 16.1875 2.02278 16.1875 2.28125V4.93747V5.71875V7.69322C17.0819 7.48075 17.75 6.67719 17.75 5.71875V2.28125C17.75 1.16125 16.8388 0.25 15.7188 0.25ZM13.375 16.1875H5.5625V17.75H14.9375V3.0625H13.375V16.1875Z" fill="#1A1E5D"/>
</svg>
