<svg width="14" height="14" viewBox="0 0 14 14" fill="none" xmlns="http://www.w3.org/2000/svg">
<path d="M0.42123 8.08667C0.301647 7.36717 0.301647 6.63285 0.42123 5.91334C1.1559 5.93067 1.8159 5.57867 2.07256 4.95934C2.32923 4.33934 2.11123 3.62334 1.57923 3.11734C2.0035 2.52353 2.52294 2.00387 3.11656 1.57934C3.62323 2.11134 4.33923 2.32934 4.95923 2.07267C5.57923 1.81601 5.93056 1.15534 5.91256 0.421341C6.63251 0.30161 7.36728 0.30161 8.08723 0.421341C8.06923 1.15601 8.42123 1.81601 9.04056 2.07267C9.66056 2.32934 10.3766 2.11134 10.8826 1.57934C11.4764 2.00362 11.996 2.52305 12.4206 3.11667C11.8886 3.62334 11.6706 4.33934 11.9272 4.95934C12.1839 5.57934 12.8446 5.93067 13.5786 5.91267C13.6983 6.63262 13.6983 7.3674 13.5786 8.08734C12.8439 8.06934 12.1839 8.42134 11.9272 9.04067C11.6706 9.66068 11.8886 10.3767 12.4206 10.8827C11.9963 11.4765 11.4769 11.9961 10.8832 12.4207C10.3766 11.8887 9.66056 11.6707 9.04056 11.9273C8.42056 12.184 8.06923 12.8447 8.08723 13.5787C7.36728 13.6984 6.63251 13.6984 5.91256 13.5787C5.93056 12.844 5.57856 12.184 4.95923 11.9273C4.33923 11.6707 3.62323 11.8887 3.11723 12.4207C2.52342 11.9964 2.00376 11.477 1.57923 10.8833C2.11123 10.3767 2.32923 9.66068 2.07256 9.04067C1.8159 8.42067 1.15523 8.06934 0.42123 8.08734V8.08667ZM6.9999 9.00001C7.53033 9.00001 8.03904 8.78929 8.41411 8.41422C8.78918 8.03915 8.9999 7.53044 8.9999 7.00001C8.9999 6.46957 8.78918 5.96087 8.41411 5.58579C8.03904 5.21072 7.53033 5.00001 6.9999 5.00001C6.46946 5.00001 5.96075 5.21072 5.58568 5.58579C5.21061 5.96087 4.9999 6.46957 4.9999 7.00001C4.9999 7.53044 5.21061 8.03915 5.58568 8.41422C5.96075 8.78929 6.46946 9.00001 6.9999 9.00001Z" fill="#1A1E5D"/>
</svg>
