<svg width="14" height="13" viewBox="0 0 14 13" fill="none" xmlns="http://www.w3.org/2000/svg">
<path d="M3.3035 10.6667L0.333496 13V0.666667C0.333496 0.489856 0.403734 0.320286 0.528758 0.195262C0.653782 0.0702379 0.823352 0 1.00016 0H13.0002C13.177 0 13.3465 0.0702379 13.4716 0.195262C13.5966 0.320286 13.6668 0.489856 13.6668 0.666667V10C13.6668 10.1768 13.5966 10.3464 13.4716 10.4714C13.3465 10.5964 13.177 10.6667 13.0002 10.6667H3.3035ZM6.3335 7.33333V8.66667H7.66683V7.33333H6.3335ZM4.7115 3.87533L6.0195 4.13733C6.05662 3.95162 6.14571 3.78027 6.27641 3.64321C6.40711 3.50615 6.57404 3.40903 6.75778 3.36314C6.94152 3.31725 7.13452 3.32447 7.31431 3.38398C7.4941 3.44349 7.6533 3.55283 7.77339 3.69927C7.89347 3.84572 7.96949 4.02326 7.99262 4.21123C8.01574 4.3992 7.98501 4.58987 7.90401 4.76106C7.82301 4.93224 7.69506 5.07691 7.53505 5.17822C7.37504 5.27953 7.18955 5.33332 7.00016 5.33333H6.3335V6.66667H7.00016C7.44201 6.66653 7.87473 6.54094 8.248 6.30451C8.62127 6.06808 8.91973 5.73052 9.10868 5.33111C9.29762 4.9317 9.36927 4.48686 9.3153 4.04832C9.26133 3.60978 9.08395 3.19558 8.8038 2.8539C8.52365 2.51222 8.15225 2.25711 7.73279 2.11824C7.31334 1.97937 6.86307 1.96245 6.43438 2.06945C6.00568 2.17645 5.61618 2.40298 5.31118 2.72267C5.00618 3.04236 4.79822 3.44208 4.7115 3.87533Z" fill="#1A1E5D"/>
</svg>
